<mxfile host="Electron" agent="Mozilla/5.0 (Macintosh; Intel Mac OS X 10_15_7) AppleWebKit/537.36 (KHTML, like Gecko) draw.io/24.7.17 Chrome/128.0.6613.36 Electron/32.0.1 Safari/537.36" version="24.7.17">
  <diagram name="Page-1" id="HmN5iVUw7w8VwPIv6dI0">
    <mxGraphModel dx="693" dy="599" grid="0" gridSize="10" guides="1" tooltips="1" connect="1" arrows="1" fold="1" page="0" pageScale="1" pageWidth="1100" pageHeight="850" math="0" shadow="0">
      <root>
        <mxCell id="0" />
        <mxCell id="1" parent="0" />
        <mxCell id="Qsz2sCaqQmOKu8iOu2gR-1" value="&lt;p dir=&quot;auto&quot; style=&quot;box-sizing: border-box; margin-top: var(--base-size-16); margin-bottom: var(--base-size-16); caret-color: rgb(31, 35, 40); color: rgb(31, 35, 40); font-family: -apple-system, BlinkMacSystemFont, &amp;quot;Segoe UI&amp;quot;, &amp;quot;Noto Sans&amp;quot;, Helvetica, Arial, sans-serif, &amp;quot;Apple Color Emoji&amp;quot;, &amp;quot;Segoe UI Emoji&amp;quot;; font-size: 16px;&quot;&gt;&lt;span style=&quot;box-sizing: border-box; font-weight: var(--base-text-weight-semibold, 600);&quot;&gt;Transaction Import &amp;amp; Categorization&lt;/span&gt;&lt;/p&gt;&lt;ul dir=&quot;auto&quot; style=&quot;box-sizing: border-box; padding-left: 2em; margin-top: 0px; margin-bottom: 0px; caret-color: rgb(31, 35, 40); color: rgb(31, 35, 40); font-family: -apple-system, BlinkMacSystemFont, &amp;quot;Segoe UI&amp;quot;, &amp;quot;Noto Sans&amp;quot;, Helvetica, Arial, sans-serif, &amp;quot;Apple Color Emoji&amp;quot;, &amp;quot;Segoe UI Emoji&amp;quot;; font-size: 16px;&quot;&gt;&lt;li style=&quot;box-sizing: border-box;&quot;&gt;The app must import transactions from a mocked bank API.&lt;/li&gt;&lt;li&gt;&lt;span style=&quot;background-color: initial; color: rgb(31, 35, 40); font-family: -apple-system, BlinkMacSystemFont, &amp;quot;Segoe UI&amp;quot;, &amp;quot;Noto Sans&amp;quot;, Helvetica, Arial, sans-serif, &amp;quot;Apple Color Emoji&amp;quot;, &amp;quot;Segoe UI Emoji&amp;quot;; font-size: 16px; caret-color: rgb(31, 35, 40);&quot;&gt;The app must automatically categorize transactions (e.g., Rent, Food, Entertainment) based on stored vendors.&lt;/span&gt;&lt;/li&gt;&lt;/ul&gt;" style="rounded=0;whiteSpace=wrap;html=1;glass=0;fillColor=none;strokeColor=#82b366;align=left;verticalAlign=middle;" vertex="1" parent="1">
          <mxGeometry x="30" y="20" width="480" height="100" as="geometry" />
        </mxCell>
        <mxCell id="Qsz2sCaqQmOKu8iOu2gR-2" value="&lt;ul class=&quot;contains-task-list&quot; style=&quot;box-sizing: border-box; padding-left: 2em; margin-top: 0px; margin-bottom: var(--base-size-16); caret-color: rgb(31, 35, 40); color: rgb(31, 35, 40); font-family: -apple-system, BlinkMacSystemFont, &amp;quot;Segoe UI&amp;quot;, &amp;quot;Noto Sans&amp;quot;, Helvetica, Arial, sans-serif, &amp;quot;Apple Color Emoji&amp;quot;, &amp;quot;Segoe UI Emoji&amp;quot;; font-size: 16px; font-style: normal; font-variant-caps: normal; font-weight: 400; letter-spacing: normal; text-indent: 0px; text-transform: none; white-space: normal; word-spacing: 0px; -webkit-text-stroke-width: 0px; text-decoration: none;&quot;&gt;&lt;li class=&quot;task-list-item&quot; style=&quot;box-sizing: border-box; list-style-type: none; margin-top: var(--base-size-4);&quot;&gt;&lt;/li&gt;&lt;/ul&gt;&lt;span style=&quot;color: rgb(31, 35, 40); font-family: -apple-system, BlinkMacSystemFont, &amp;quot;Segoe UI&amp;quot;, &amp;quot;Noto Sans&amp;quot;, Helvetica, Arial, sans-serif, &amp;quot;Apple Color Emoji&amp;quot;, &amp;quot;Segoe UI Emoji&amp;quot;; font-size: 16px; caret-color: rgb(31, 35, 40); background-color: initial; box-sizing: border-box; font-weight: var(--base-text-weight-semibold, 600);&quot;&gt;Personalized Spaces (Sub-Accounts)&lt;/span&gt;&lt;br&gt;&lt;ul class=&quot;contains-task-list&quot; style=&quot;box-sizing: border-box; padding-left: 2em; margin-top: 0px; margin-bottom: var(--base-size-16); caret-color: rgb(31, 35, 40); color: rgb(31, 35, 40); font-family: -apple-system, BlinkMacSystemFont, &amp;quot;Segoe UI&amp;quot;, &amp;quot;Noto Sans&amp;quot;, Helvetica, Arial, sans-serif, &amp;quot;Apple Color Emoji&amp;quot;, &amp;quot;Segoe UI Emoji&amp;quot;; font-size: 16px; font-style: normal; font-variant-caps: normal; font-weight: 400; letter-spacing: normal; text-indent: 0px; text-transform: none; white-space: normal; word-spacing: 0px; -webkit-text-stroke-width: 0px; text-decoration: none;&quot;&gt;&lt;li&gt;&lt;span style=&quot;background-color: initial; font-family: -apple-system, BlinkMacSystemFont, &amp;quot;Segoe UI&amp;quot;, &amp;quot;Noto Sans&amp;quot;, Helvetica, Arial, sans-serif, &amp;quot;Apple Color Emoji&amp;quot;, &amp;quot;Segoe UI Emoji&amp;quot;; color: rgb(31, 35, 40); font-size: 16px; caret-color: rgb(31, 35, 40);&quot;&gt;The app must allow users to create virtual spaces (e.g., &quot;Vacation&quot;, &quot;Car Savings&quot;).&lt;/span&gt;&lt;/li&gt;&lt;li&gt;&lt;span style=&quot;background-color: initial; font-family: -apple-system, BlinkMacSystemFont, &amp;quot;Segoe UI&amp;quot;, &amp;quot;Noto Sans&amp;quot;, Helvetica, Arial, sans-serif, &amp;quot;Apple Color Emoji&amp;quot;, &amp;quot;Segoe UI Emoji&amp;quot;; color: rgb(31, 35, 40); font-size: 16px; caret-color: rgb(31, 35, 40);&quot;&gt;The app must allow users to manually transfer money between spaces.&lt;/span&gt;&lt;/li&gt;&lt;/ul&gt;" style="rounded=0;whiteSpace=wrap;html=1;glass=0;fillColor=none;strokeColor=#b85450;align=left;verticalAlign=middle;" vertex="1" parent="1">
          <mxGeometry x="30" y="130" width="480" height="110" as="geometry" />
        </mxCell>
        <mxCell id="Qsz2sCaqQmOKu8iOu2gR-3" value="&lt;ul class=&quot;contains-task-list&quot; style=&quot;box-sizing: border-box; padding-left: 2em; margin-top: 0px; margin-bottom: var(--base-size-16); caret-color: rgb(31, 35, 40); color: rgb(31, 35, 40); font-family: -apple-system, BlinkMacSystemFont, &amp;quot;Segoe UI&amp;quot;, &amp;quot;Noto Sans&amp;quot;, Helvetica, Arial, sans-serif, &amp;quot;Apple Color Emoji&amp;quot;, &amp;quot;Segoe UI Emoji&amp;quot;; font-size: 16px;&quot;&gt;&lt;li class=&quot;task-list-item&quot; style=&quot;box-sizing: border-box; list-style-type: none; margin-top: var(--base-size-4);&quot;&gt;&lt;/li&gt;&lt;/ul&gt;&lt;span style=&quot;font-weight: var(--base-text-weight-semibold, 600); color: rgb(31, 35, 40); font-family: -apple-system, BlinkMacSystemFont, &amp;quot;Segoe UI&amp;quot;, &amp;quot;Noto Sans&amp;quot;, Helvetica, Arial, sans-serif, &amp;quot;Apple Color Emoji&amp;quot;, &amp;quot;Segoe UI Emoji&amp;quot;; font-size: 16px; caret-color: rgb(31, 35, 40); background-color: initial;&quot;&gt;Milestones &amp;amp; Statistics for Spaces&lt;/span&gt;&lt;br&gt;&lt;ul class=&quot;contains-task-list&quot; style=&quot;box-sizing: border-box; padding-left: 2em; margin-top: 0px; margin-bottom: var(--base-size-16); caret-color: rgb(31, 35, 40); color: rgb(31, 35, 40); font-family: -apple-system, BlinkMacSystemFont, &amp;quot;Segoe UI&amp;quot;, &amp;quot;Noto Sans&amp;quot;, Helvetica, Arial, sans-serif, &amp;quot;Apple Color Emoji&amp;quot;, &amp;quot;Segoe UI Emoji&amp;quot;; font-size: 16px;&quot;&gt;&lt;li&gt;&lt;span style=&quot;background-color: initial; font-family: -apple-system, BlinkMacSystemFont, &amp;quot;Segoe UI&amp;quot;, &amp;quot;Noto Sans&amp;quot;, Helvetica, Arial, sans-serif, &amp;quot;Apple Color Emoji&amp;quot;, &amp;quot;Segoe UI Emoji&amp;quot;; color: rgb(31, 35, 40); font-size: 16px; caret-color: rgb(31, 35, 40);&quot;&gt;The app must allow users to set saving goals (milestones).&lt;/span&gt;&lt;/li&gt;&lt;li&gt;&lt;span style=&quot;background-color: initial; font-family: -apple-system, BlinkMacSystemFont, &amp;quot;Segoe UI&amp;quot;, &amp;quot;Noto Sans&amp;quot;, Helvetica, Arial, sans-serif, &amp;quot;Apple Color Emoji&amp;quot;, &amp;quot;Segoe UI Emoji&amp;quot;; color: rgb(31, 35, 40); font-size: 16px; caret-color: rgb(31, 35, 40);&quot;&gt;The app must display saving goal progress visually.&lt;/span&gt;&lt;/li&gt;&lt;/ul&gt;&lt;ul class=&quot;contains-task-list&quot; style=&quot;box-sizing: border-box; padding-left: 2em; margin-top: 0px; margin-bottom: var(--base-size-16); caret-color: rgb(31, 35, 40); color: rgb(31, 35, 40); font-family: -apple-system, BlinkMacSystemFont, &amp;quot;Segoe UI&amp;quot;, &amp;quot;Noto Sans&amp;quot;, Helvetica, Arial, sans-serif, &amp;quot;Apple Color Emoji&amp;quot;, &amp;quot;Segoe UI Emoji&amp;quot;; font-size: 16px;&quot;&gt;&lt;li class=&quot;task-list-item&quot; style=&quot;box-sizing: border-box; list-style-type: none; margin-top: var(--base-size-4);&quot;&gt;&lt;p&gt;&lt;/p&gt;&lt;/li&gt;&lt;/ul&gt;" style="rounded=0;whiteSpace=wrap;html=1;glass=0;fillColor=none;strokeColor=#b85450;align=left;verticalAlign=middle;" vertex="1" parent="1">
          <mxGeometry x="30" y="250" width="480" height="100" as="geometry" />
        </mxCell>
        <mxCell id="Qsz2sCaqQmOKu8iOu2gR-4" value="&lt;ul class=&quot;contains-task-list&quot; style=&quot;box-sizing: border-box; padding-left: 2em; margin-top: 0px; margin-bottom: var(--base-size-16); caret-color: rgb(31, 35, 40); color: rgb(31, 35, 40); font-family: -apple-system, BlinkMacSystemFont, &amp;quot;Segoe UI&amp;quot;, &amp;quot;Noto Sans&amp;quot;, Helvetica, Arial, sans-serif, &amp;quot;Apple Color Emoji&amp;quot;, &amp;quot;Segoe UI Emoji&amp;quot;; font-size: 16px;&quot;&gt;&lt;li class=&quot;task-list-item&quot; style=&quot;box-sizing: border-box; list-style-type: none; margin-top: var(--base-size-4);&quot;&gt;&lt;/li&gt;&lt;/ul&gt;&lt;p style=&quot;box-sizing: border-box; margin-top: var(--base-size-16); margin-bottom: var(--base-size-16); caret-color: rgb(31, 35, 40); color: rgb(31, 35, 40); font-family: -apple-system, BlinkMacSystemFont, &amp;quot;Segoe UI&amp;quot;, &amp;quot;Noto Sans&amp;quot;, Helvetica, Arial, sans-serif, &amp;quot;Apple Color Emoji&amp;quot;, &amp;quot;Segoe UI Emoji&amp;quot;; font-size: 16px;&quot; dir=&quot;auto&quot;&gt;&lt;span style=&quot;box-sizing: border-box; font-weight: var(--base-text-weight-semibold, 600);&quot;&gt;Income &amp;amp; Expense Statistics&lt;/span&gt;&lt;/p&gt;&lt;ul style=&quot;box-sizing: border-box; padding-left: 2em; margin-top: 0px; margin-bottom: 0px; caret-color: rgb(31, 35, 40); color: rgb(31, 35, 40); font-family: -apple-system, BlinkMacSystemFont, &amp;quot;Segoe UI&amp;quot;, &amp;quot;Noto Sans&amp;quot;, Helvetica, Arial, sans-serif, &amp;quot;Apple Color Emoji&amp;quot;, &amp;quot;Segoe UI Emoji&amp;quot;; font-size: 16px;&quot; dir=&quot;auto&quot;&gt;&lt;li style=&quot;box-sizing: border-box;&quot;&gt;The app must provide an overview of income and expenses.&lt;/li&gt;&lt;li style=&quot;box-sizing: border-box; margin-top: 0.25em;&quot;&gt;The app must visualize income and expenses data using graphical representation with charts.&lt;/li&gt;&lt;/ul&gt;&lt;ul class=&quot;contains-task-list&quot; style=&quot;box-sizing: border-box; padding-left: 2em; margin-top: 0px; margin-bottom: var(--base-size-16); caret-color: rgb(31, 35, 40); color: rgb(31, 35, 40); font-family: -apple-system, BlinkMacSystemFont, &amp;quot;Segoe UI&amp;quot;, &amp;quot;Noto Sans&amp;quot;, Helvetica, Arial, sans-serif, &amp;quot;Apple Color Emoji&amp;quot;, &amp;quot;Segoe UI Emoji&amp;quot;; font-size: 16px;&quot;&gt;&lt;li class=&quot;task-list-item&quot; style=&quot;box-sizing: border-box; list-style-type: none; margin-top: var(--base-size-4);&quot;&gt;&lt;p&gt;&lt;/p&gt;&lt;/li&gt;&lt;/ul&gt;" style="rounded=0;whiteSpace=wrap;html=1;glass=0;fillColor=none;strokeColor=#b85450;align=left;verticalAlign=middle;" vertex="1" parent="1">
          <mxGeometry x="30" y="360" width="480" height="110" as="geometry" />
        </mxCell>
        <mxCell id="Qsz2sCaqQmOKu8iOu2gR-5" value="&lt;ul class=&quot;contains-task-list&quot; style=&quot;box-sizing: border-box; padding-left: 2em; margin-top: 0px; margin-bottom: var(--base-size-16); caret-color: rgb(31, 35, 40); color: rgb(31, 35, 40); font-family: -apple-system, BlinkMacSystemFont, &amp;quot;Segoe UI&amp;quot;, &amp;quot;Noto Sans&amp;quot;, Helvetica, Arial, sans-serif, &amp;quot;Apple Color Emoji&amp;quot;, &amp;quot;Segoe UI Emoji&amp;quot;; font-size: 16px;&quot;&gt;&lt;li class=&quot;task-list-item&quot; style=&quot;box-sizing: border-box; list-style-type: none; margin-top: var(--base-size-4);&quot;&gt;&lt;/li&gt;&lt;li class=&quot;task-list-item&quot; style=&quot;box-sizing: border-box; list-style-type: none; margin-top: var(--base-size-4);&quot;&gt;&lt;p dir=&quot;auto&quot; style=&quot;box-sizing: border-box; margin-top: var(--base-size-16); margin-bottom: var(--base-size-16); font-family: -apple-system, BlinkMacSystemFont, &amp;quot;Segoe UI&amp;quot;, &amp;quot;Noto Sans&amp;quot;, Helvetica, Arial, sans-serif, &amp;quot;Apple Color Emoji&amp;quot;, &amp;quot;Segoe UI Emoji&amp;quot;;&quot;&gt;&lt;/p&gt;&lt;/li&gt;&lt;/ul&gt;&lt;p style=&quot;background-color: initial; color: rgb(31, 35, 40); font-family: -apple-system, BlinkMacSystemFont, &amp;quot;Segoe UI&amp;quot;, &amp;quot;Noto Sans&amp;quot;, Helvetica, Arial, sans-serif, &amp;quot;Apple Color Emoji&amp;quot;, &amp;quot;Segoe UI Emoji&amp;quot;; font-size: 16px; caret-color: rgb(31, 35, 40); box-sizing: border-box; margin-top: var(--base-size-16); margin-bottom: var(--base-size-16); display: inline !important;&quot; dir=&quot;auto&quot;&gt;&lt;span style=&quot;box-sizing: border-box; font-weight: var(--base-text-weight-semibold, 600);&quot;&gt;Session&lt;/span&gt;&lt;/p&gt;&lt;div&gt;&lt;p style=&quot;color: rgb(31, 35, 40); font-family: -apple-system, BlinkMacSystemFont, &amp;quot;Segoe UI&amp;quot;, &amp;quot;Noto Sans&amp;quot;, Helvetica, Arial, sans-serif, &amp;quot;Apple Color Emoji&amp;quot;, &amp;quot;Segoe UI Emoji&amp;quot;; font-size: 16px; caret-color: rgb(31, 35, 40); background-color: initial; box-sizing: border-box; margin-top: var(--base-size-16); margin-bottom: var(--base-size-16); display: inline !important;&quot; dir=&quot;auto&quot;&gt;&lt;span style=&quot;background-color: initial; font-family: -apple-system, BlinkMacSystemFont, &amp;quot;Segoe UI&amp;quot;, &amp;quot;Noto Sans&amp;quot;, Helvetica, Arial, sans-serif, &amp;quot;Apple Color Emoji&amp;quot;, &amp;quot;Segoe UI Emoji&amp;quot;;&quot;&gt;The app must retain the session (JWT/access token) after an initial login.&lt;/span&gt;&lt;br&gt;&lt;/p&gt;&lt;ul class=&quot;contains-task-list&quot; style=&quot;box-sizing: border-box; padding-left: 2em; margin-top: 0px; margin-bottom: var(--base-size-16); caret-color: rgb(31, 35, 40); color: rgb(31, 35, 40); font-family: -apple-system, BlinkMacSystemFont, &amp;quot;Segoe UI&amp;quot;, &amp;quot;Noto Sans&amp;quot;, Helvetica, Arial, sans-serif, &amp;quot;Apple Color Emoji&amp;quot;, &amp;quot;Segoe UI Emoji&amp;quot;; font-size: 16px;&quot;&gt;&lt;li class=&quot;task-list-item&quot; style=&quot;box-sizing: border-box; list-style-type: none; margin-top: var(--base-size-4);&quot;&gt;&lt;p&gt;&lt;/p&gt;&lt;/li&gt;&lt;/ul&gt;&lt;/div&gt;" style="rounded=0;whiteSpace=wrap;html=1;glass=0;fillColor=none;strokeColor=#b85450;align=left;verticalAlign=middle;" vertex="1" parent="1">
          <mxGeometry x="30" y="480" width="480" height="80" as="geometry" />
        </mxCell>
        <mxCell id="Qsz2sCaqQmOKu8iOu2gR-6" value="&lt;p dir=&quot;auto&quot; style=&quot;box-sizing: border-box; margin-top: var(--base-size-16); margin-bottom: var(--base-size-16); caret-color: rgb(31, 35, 40); color: rgb(31, 35, 40); font-family: -apple-system, BlinkMacSystemFont, &amp;quot;Segoe UI&amp;quot;, &amp;quot;Noto Sans&amp;quot;, Helvetica, Arial, sans-serif, &amp;quot;Apple Color Emoji&amp;quot;, &amp;quot;Segoe UI Emoji&amp;quot;; font-size: 16px;&quot;&gt;&lt;span style=&quot;box-sizing: border-box; font-weight: var(--base-text-weight-semibold, 600);&quot;&gt;Automated Money Distribution Rules&lt;/span&gt;&lt;/p&gt;&lt;ul dir=&quot;auto&quot; style=&quot;box-sizing: border-box; padding-left: 2em; margin-top: 0px; margin-bottom: 0px; caret-color: rgb(31, 35, 40); color: rgb(31, 35, 40); font-family: -apple-system, BlinkMacSystemFont, &amp;quot;Segoe UI&amp;quot;, &amp;quot;Noto Sans&amp;quot;, Helvetica, Arial, sans-serif, &amp;quot;Apple Color Emoji&amp;quot;, &amp;quot;Segoe UI Emoji&amp;quot;; font-size: 16px;&quot;&gt;&lt;li style=&quot;box-sizing: border-box;&quot;&gt;The app should allow users to define automated money distribution rules (e.g., &quot;Save 10% of my salary automatically&quot;).&lt;/li&gt;&lt;li style=&quot;box-sizing: border-box; margin-top: 0.25em;&quot;&gt;The app should automatically execute these rules when new income arrives.&lt;/li&gt;&lt;/ul&gt;" style="rounded=0;whiteSpace=wrap;html=1;fillColor=none;strokeColor=#d79b00;align=left;verticalAlign=middle;" vertex="1" parent="1">
          <mxGeometry x="30" y="570" width="480" height="130" as="geometry" />
        </mxCell>
        <mxCell id="Qsz2sCaqQmOKu8iOu2gR-7" value="&lt;p dir=&quot;auto&quot; style=&quot;box-sizing: border-box; margin-top: var(--base-size-16); margin-bottom: var(--base-size-16); caret-color: rgb(31, 35, 40); color: rgb(31, 35, 40); font-family: -apple-system, BlinkMacSystemFont, &amp;quot;Segoe UI&amp;quot;, &amp;quot;Noto Sans&amp;quot;, Helvetica, Arial, sans-serif, &amp;quot;Apple Color Emoji&amp;quot;, &amp;quot;Segoe UI Emoji&amp;quot;; font-size: 16px;&quot;&gt;&lt;span style=&quot;box-sizing: border-box; font-weight: var(--base-text-weight-semibold, 600);&quot;&gt;Category-Based Budgeting&lt;/span&gt;&lt;/p&gt;&lt;span style=&quot;color: rgb(31, 35, 40); font-family: -apple-system, BlinkMacSystemFont, &amp;quot;Segoe UI&amp;quot;, &amp;quot;Noto Sans&amp;quot;, Helvetica, Arial, sans-serif, &amp;quot;Apple Color Emoji&amp;quot;, &amp;quot;Segoe UI Emoji&amp;quot;; font-size: 16px; caret-color: rgb(31, 35, 40); background-color: initial;&quot;&gt;The app should allow users to define budgets for different spending categories. These are visually enforced.&lt;/span&gt;" style="rounded=0;whiteSpace=wrap;html=1;fillColor=none;strokeColor=#d79b00;align=left;verticalAlign=middle;" vertex="1" parent="1">
          <mxGeometry x="30" y="710" width="480" height="80" as="geometry" />
        </mxCell>
        <mxCell id="Qsz2sCaqQmOKu8iOu2gR-8" value="&lt;p dir=&quot;auto&quot; style=&quot;box-sizing: border-box; margin-top: var(--base-size-16); margin-bottom: var(--base-size-16); caret-color: rgb(31, 35, 40); color: rgb(31, 35, 40); font-family: -apple-system, BlinkMacSystemFont, &amp;quot;Segoe UI&amp;quot;, &amp;quot;Noto Sans&amp;quot;, Helvetica, Arial, sans-serif, &amp;quot;Apple Color Emoji&amp;quot;, &amp;quot;Segoe UI Emoji&amp;quot;; font-size: 16px;&quot;&gt;&lt;span style=&quot;box-sizing: border-box; font-weight: var(--base-text-weight-semibold, 600);&quot;&gt;Dark Mode Support&lt;/span&gt;&lt;/p&gt;&lt;span style=&quot;color: rgb(31, 35, 40); font-family: -apple-system, BlinkMacSystemFont, &amp;quot;Segoe UI&amp;quot;, &amp;quot;Noto Sans&amp;quot;, Helvetica, Arial, sans-serif, &amp;quot;Apple Color Emoji&amp;quot;, &amp;quot;Segoe UI Emoji&amp;quot;; font-size: 16px; caret-color: rgb(31, 35, 40); background-color: initial;&quot;&gt;The app should provide a dark mode option.&lt;/span&gt;" style="rounded=0;whiteSpace=wrap;html=1;fillColor=none;strokeColor=#d79b00;align=left;verticalAlign=middle;" vertex="1" parent="1">
          <mxGeometry x="30" y="800" width="480" height="60" as="geometry" />
        </mxCell>
        <mxCell id="Qsz2sCaqQmOKu8iOu2gR-9" value="&lt;p dir=&quot;auto&quot; style=&quot;box-sizing: border-box; margin-top: var(--base-size-16); margin-bottom: var(--base-size-16); caret-color: rgb(31, 35, 40); color: rgb(31, 35, 40); font-family: -apple-system, BlinkMacSystemFont, &amp;quot;Segoe UI&amp;quot;, &amp;quot;Noto Sans&amp;quot;, Helvetica, Arial, sans-serif, &amp;quot;Apple Color Emoji&amp;quot;, &amp;quot;Segoe UI Emoji&amp;quot;; font-size: 16px;&quot;&gt;&lt;span style=&quot;box-sizing: border-box; font-weight: var(--base-text-weight-semibold, 600);&quot;&gt;Stock Portfolio (Mock Data)&lt;/span&gt;&lt;/p&gt;&lt;ul dir=&quot;auto&quot; style=&quot;box-sizing: border-box; padding-left: 2em; margin-top: 0px; margin-bottom: 0px; caret-color: rgb(31, 35, 40); color: rgb(31, 35, 40); font-family: -apple-system, BlinkMacSystemFont, &amp;quot;Segoe UI&amp;quot;, &amp;quot;Noto Sans&amp;quot;, Helvetica, Arial, sans-serif, &amp;quot;Apple Color Emoji&amp;quot;, &amp;quot;Segoe UI Emoji&amp;quot;; font-size: 16px;&quot;&gt;&lt;li style=&quot;box-sizing: border-box;&quot;&gt;The app could include a simulated stock portfolio feature.&lt;/li&gt;&lt;li style=&quot;box-sizing: border-box; margin-top: 0.25em;&quot;&gt;The app could display historical mock data rather than real-time stock values.&lt;/li&gt;&lt;/ul&gt;" style="rounded=0;whiteSpace=wrap;html=1;fillColor=none;strokeColor=#d6b656;align=left;verticalAlign=middle;" vertex="1" parent="1">
          <mxGeometry x="30" y="870" width="480" height="110" as="geometry" />
        </mxCell>
        <mxCell id="Qsz2sCaqQmOKu8iOu2gR-10" value="&lt;p dir=&quot;auto&quot; style=&quot;box-sizing: border-box; margin-top: var(--base-size-16); margin-bottom: var(--base-size-16); caret-color: rgb(31, 35, 40); color: rgb(31, 35, 40); font-family: -apple-system, BlinkMacSystemFont, &amp;quot;Segoe UI&amp;quot;, &amp;quot;Noto Sans&amp;quot;, Helvetica, Arial, sans-serif, &amp;quot;Apple Color Emoji&amp;quot;, &amp;quot;Segoe UI Emoji&amp;quot;; font-size: 16px;&quot;&gt;&lt;span style=&quot;box-sizing: border-box; font-weight: var(--base-text-weight-semibold, 600);&quot;&gt;Custom Transaction Tags&lt;/span&gt;&lt;/p&gt;&lt;span style=&quot;color: rgb(31, 35, 40); font-family: -apple-system, BlinkMacSystemFont, &amp;quot;Segoe UI&amp;quot;, &amp;quot;Noto Sans&amp;quot;, Helvetica, Arial, sans-serif, &amp;quot;Apple Color Emoji&amp;quot;, &amp;quot;Segoe UI Emoji&amp;quot;; font-size: 16px; caret-color: rgb(31, 35, 40); background-color: initial;&quot;&gt;The app could allow users to create custom tags for transactions and enable filtering based on these tags.&lt;/span&gt;" style="rounded=0;whiteSpace=wrap;html=1;fillColor=none;strokeColor=#d6b656;align=left;verticalAlign=middle;" vertex="1" parent="1">
          <mxGeometry x="30" y="990" width="480" height="80" as="geometry" />
        </mxCell>
        <mxCell id="Qsz2sCaqQmOKu8iOu2gR-11" value="&lt;p dir=&quot;auto&quot; style=&quot;box-sizing: border-box; margin-top: var(--base-size-16); margin-bottom: var(--base-size-16); caret-color: rgb(31, 35, 40); color: rgb(31, 35, 40); font-family: -apple-system, BlinkMacSystemFont, &amp;quot;Segoe UI&amp;quot;, &amp;quot;Noto Sans&amp;quot;, Helvetica, Arial, sans-serif, &amp;quot;Apple Color Emoji&amp;quot;, &amp;quot;Segoe UI Emoji&amp;quot;; font-size: 16px;&quot;&gt;&lt;span style=&quot;box-sizing: border-box; font-weight: var(--base-text-weight-semibold, 600);&quot;&gt;Badges and Rewards&lt;/span&gt;&lt;/p&gt;&lt;span style=&quot;color: rgb(31, 35, 40); font-family: -apple-system, BlinkMacSystemFont, &amp;quot;Segoe UI&amp;quot;, &amp;quot;Noto Sans&amp;quot;, Helvetica, Arial, sans-serif, &amp;quot;Apple Color Emoji&amp;quot;, &amp;quot;Segoe UI Emoji&amp;quot;; font-size: 16px; caret-color: rgb(31, 35, 40); background-color: initial;&quot;&gt;The app could include achievement badges or rewards for meeting savings goals or staying within budget.&lt;/span&gt;" style="rounded=0;whiteSpace=wrap;html=1;fillColor=none;strokeColor=#d6b656;align=left;verticalAlign=middle;" vertex="1" parent="1">
          <mxGeometry x="30" y="1080" width="480" height="80" as="geometry" />
        </mxCell>
        <mxCell id="Qsz2sCaqQmOKu8iOu2gR-12" value="&lt;p dir=&quot;auto&quot; style=&quot;box-sizing: border-box; margin-top: var(--base-size-16); margin-bottom: var(--base-size-16); caret-color: rgb(31, 35, 40); color: rgb(31, 35, 40); font-family: -apple-system, BlinkMacSystemFont, &amp;quot;Segoe UI&amp;quot;, &amp;quot;Noto Sans&amp;quot;, Helvetica, Arial, sans-serif, &amp;quot;Apple Color Emoji&amp;quot;, &amp;quot;Segoe UI Emoji&amp;quot;; font-size: 16px;&quot;&gt;&lt;span style=&quot;box-sizing: border-box; font-weight: var(--base-text-weight-semibold, 600);&quot;&gt;Onboarding Flow/Tutorials for new Users&lt;/span&gt;&lt;/p&gt;&lt;span style=&quot;color: rgb(31, 35, 40); font-family: -apple-system, BlinkMacSystemFont, &amp;quot;Segoe UI&amp;quot;, &amp;quot;Noto Sans&amp;quot;, Helvetica, Arial, sans-serif, &amp;quot;Apple Color Emoji&amp;quot;, &amp;quot;Segoe UI Emoji&amp;quot;; font-size: 16px; caret-color: rgb(31, 35, 40); background-color: initial;&quot;&gt;The app must include an onboarding flow to guide new users and explain core features.&lt;/span&gt;" style="rounded=0;whiteSpace=wrap;html=1;fillColor=none;strokeColor=#d6b656;align=left;verticalAlign=middle;" vertex="1" parent="1">
          <mxGeometry x="30" y="1170" width="480" height="70" as="geometry" />
        </mxCell>
        <mxCell id="Qsz2sCaqQmOKu8iOu2gR-14" value="&lt;p dir=&quot;auto&quot; style=&quot;box-sizing: border-box; margin-top: var(--base-size-16); margin-bottom: var(--base-size-16); caret-color: rgb(31, 35, 40); color: rgb(31, 35, 40); font-family: -apple-system, BlinkMacSystemFont, &amp;quot;Segoe UI&amp;quot;, &amp;quot;Noto Sans&amp;quot;, Helvetica, Arial, sans-serif, &amp;quot;Apple Color Emoji&amp;quot;, &amp;quot;Segoe UI Emoji&amp;quot;; font-size: 16px;&quot;&gt;&lt;span style=&quot;box-sizing: border-box; font-weight: var(--base-text-weight-semibold, 600);&quot;&gt;Transaction Import &amp;amp; Categorization&lt;/span&gt;&lt;/p&gt;&lt;ul dir=&quot;auto&quot; style=&quot;box-sizing: border-box; padding-left: 2em; margin-top: 0px; margin-bottom: 0px; caret-color: rgb(31, 35, 40); color: rgb(31, 35, 40); font-family: -apple-system, BlinkMacSystemFont, &amp;quot;Segoe UI&amp;quot;, &amp;quot;Noto Sans&amp;quot;, Helvetica, Arial, sans-serif, &amp;quot;Apple Color Emoji&amp;quot;, &amp;quot;Segoe UI Emoji&amp;quot;; font-size: 16px;&quot;&gt;&lt;li style=&quot;box-sizing: border-box;&quot;&gt;The app must import transactions from a mocked bank API.&lt;/li&gt;&lt;li&gt;&lt;span style=&quot;background-color: initial; color: rgb(31, 35, 40); font-family: -apple-system, BlinkMacSystemFont, &amp;quot;Segoe UI&amp;quot;, &amp;quot;Noto Sans&amp;quot;, Helvetica, Arial, sans-serif, &amp;quot;Apple Color Emoji&amp;quot;, &amp;quot;Segoe UI Emoji&amp;quot;; font-size: 16px; caret-color: rgb(31, 35, 40);&quot;&gt;The app must automatically categorize transactions (e.g., Rent, Food, Entertainment) based on stored vendors.&lt;/span&gt;&lt;/li&gt;&lt;/ul&gt;" style="rounded=0;whiteSpace=wrap;html=1;glass=0;fillColor=none;strokeColor=#82b366;align=left;verticalAlign=middle;" vertex="1" parent="1">
          <mxGeometry x="670" y="330" width="480" height="100" as="geometry" />
        </mxCell>
        <mxCell id="Qsz2sCaqQmOKu8iOu2gR-15" value="&lt;ul class=&quot;contains-task-list&quot; style=&quot;box-sizing: border-box; padding-left: 2em; margin-top: 0px; margin-bottom: var(--base-size-16); caret-color: rgb(31, 35, 40); color: rgb(31, 35, 40); font-family: -apple-system, BlinkMacSystemFont, &amp;quot;Segoe UI&amp;quot;, &amp;quot;Noto Sans&amp;quot;, Helvetica, Arial, sans-serif, &amp;quot;Apple Color Emoji&amp;quot;, &amp;quot;Segoe UI Emoji&amp;quot;; font-size: 16px; font-style: normal; font-variant-caps: normal; font-weight: 400; letter-spacing: normal; text-indent: 0px; text-transform: none; white-space: normal; word-spacing: 0px; -webkit-text-stroke-width: 0px; text-decoration: none;&quot;&gt;&lt;li class=&quot;task-list-item&quot; style=&quot;box-sizing: border-box; list-style-type: none; margin-top: var(--base-size-4);&quot;&gt;&lt;/li&gt;&lt;/ul&gt;&lt;span style=&quot;color: rgb(31, 35, 40); font-family: -apple-system, BlinkMacSystemFont, &amp;quot;Segoe UI&amp;quot;, &amp;quot;Noto Sans&amp;quot;, Helvetica, Arial, sans-serif, &amp;quot;Apple Color Emoji&amp;quot;, &amp;quot;Segoe UI Emoji&amp;quot;; font-size: 16px; caret-color: rgb(31, 35, 40); background-color: initial; box-sizing: border-box; font-weight: var(--base-text-weight-semibold, 600);&quot;&gt;Personalized Spaces (Sub-Accounts)&lt;/span&gt;&lt;br&gt;&lt;ul class=&quot;contains-task-list&quot; style=&quot;box-sizing: border-box; padding-left: 2em; margin-top: 0px; margin-bottom: var(--base-size-16); caret-color: rgb(31, 35, 40); color: rgb(31, 35, 40); font-family: -apple-system, BlinkMacSystemFont, &amp;quot;Segoe UI&amp;quot;, &amp;quot;Noto Sans&amp;quot;, Helvetica, Arial, sans-serif, &amp;quot;Apple Color Emoji&amp;quot;, &amp;quot;Segoe UI Emoji&amp;quot;; font-size: 16px; font-style: normal; font-variant-caps: normal; font-weight: 400; letter-spacing: normal; text-indent: 0px; text-transform: none; white-space: normal; word-spacing: 0px; -webkit-text-stroke-width: 0px; text-decoration: none;&quot;&gt;&lt;li&gt;&lt;span style=&quot;background-color: initial; font-family: -apple-system, BlinkMacSystemFont, &amp;quot;Segoe UI&amp;quot;, &amp;quot;Noto Sans&amp;quot;, Helvetica, Arial, sans-serif, &amp;quot;Apple Color Emoji&amp;quot;, &amp;quot;Segoe UI Emoji&amp;quot;; color: rgb(31, 35, 40); font-size: 16px; caret-color: rgb(31, 35, 40);&quot;&gt;The app must allow users to create virtual spaces (e.g., &quot;Vacation&quot;, &quot;Car Savings&quot;).&lt;/span&gt;&lt;/li&gt;&lt;li&gt;&lt;span style=&quot;background-color: initial; font-family: -apple-system, BlinkMacSystemFont, &amp;quot;Segoe UI&amp;quot;, &amp;quot;Noto Sans&amp;quot;, Helvetica, Arial, sans-serif, &amp;quot;Apple Color Emoji&amp;quot;, &amp;quot;Segoe UI Emoji&amp;quot;; color: rgb(31, 35, 40); font-size: 16px; caret-color: rgb(31, 35, 40);&quot;&gt;The app must allow users to manually transfer money between spaces.&lt;/span&gt;&lt;/li&gt;&lt;/ul&gt;" style="rounded=0;whiteSpace=wrap;html=1;glass=0;fillColor=none;strokeColor=#b85450;align=left;verticalAlign=middle;" vertex="1" parent="1">
          <mxGeometry x="670" y="640" width="480" height="110" as="geometry" />
        </mxCell>
        <mxCell id="Qsz2sCaqQmOKu8iOu2gR-16" value="&lt;ul class=&quot;contains-task-list&quot; style=&quot;box-sizing: border-box; padding-left: 2em; margin-top: 0px; margin-bottom: var(--base-size-16); caret-color: rgb(31, 35, 40); color: rgb(31, 35, 40); font-family: -apple-system, BlinkMacSystemFont, &amp;quot;Segoe UI&amp;quot;, &amp;quot;Noto Sans&amp;quot;, Helvetica, Arial, sans-serif, &amp;quot;Apple Color Emoji&amp;quot;, &amp;quot;Segoe UI Emoji&amp;quot;; font-size: 16px;&quot;&gt;&lt;li class=&quot;task-list-item&quot; style=&quot;box-sizing: border-box; list-style-type: none; margin-top: var(--base-size-4);&quot;&gt;&lt;/li&gt;&lt;/ul&gt;&lt;span style=&quot;font-weight: var(--base-text-weight-semibold, 600); color: rgb(31, 35, 40); font-family: -apple-system, BlinkMacSystemFont, &amp;quot;Segoe UI&amp;quot;, &amp;quot;Noto Sans&amp;quot;, Helvetica, Arial, sans-serif, &amp;quot;Apple Color Emoji&amp;quot;, &amp;quot;Segoe UI Emoji&amp;quot;; font-size: 16px; caret-color: rgb(31, 35, 40); background-color: initial;&quot;&gt;Milestones &amp;amp; Statistics for Spaces&lt;/span&gt;&lt;br&gt;&lt;ul class=&quot;contains-task-list&quot; style=&quot;box-sizing: border-box; padding-left: 2em; margin-top: 0px; margin-bottom: var(--base-size-16); caret-color: rgb(31, 35, 40); color: rgb(31, 35, 40); font-family: -apple-system, BlinkMacSystemFont, &amp;quot;Segoe UI&amp;quot;, &amp;quot;Noto Sans&amp;quot;, Helvetica, Arial, sans-serif, &amp;quot;Apple Color Emoji&amp;quot;, &amp;quot;Segoe UI Emoji&amp;quot;; font-size: 16px;&quot;&gt;&lt;li&gt;&lt;span style=&quot;background-color: initial; font-family: -apple-system, BlinkMacSystemFont, &amp;quot;Segoe UI&amp;quot;, &amp;quot;Noto Sans&amp;quot;, Helvetica, Arial, sans-serif, &amp;quot;Apple Color Emoji&amp;quot;, &amp;quot;Segoe UI Emoji&amp;quot;; color: rgb(31, 35, 40); font-size: 16px; caret-color: rgb(31, 35, 40);&quot;&gt;The app must allow users to set saving goals (milestones).&lt;/span&gt;&lt;/li&gt;&lt;li&gt;&lt;span style=&quot;background-color: initial; font-family: -apple-system, BlinkMacSystemFont, &amp;quot;Segoe UI&amp;quot;, &amp;quot;Noto Sans&amp;quot;, Helvetica, Arial, sans-serif, &amp;quot;Apple Color Emoji&amp;quot;, &amp;quot;Segoe UI Emoji&amp;quot;; color: rgb(31, 35, 40); font-size: 16px; caret-color: rgb(31, 35, 40);&quot;&gt;The app must display saving goal progress visually.&lt;/span&gt;&lt;/li&gt;&lt;/ul&gt;&lt;ul class=&quot;contains-task-list&quot; style=&quot;box-sizing: border-box; padding-left: 2em; margin-top: 0px; margin-bottom: var(--base-size-16); caret-color: rgb(31, 35, 40); color: rgb(31, 35, 40); font-family: -apple-system, BlinkMacSystemFont, &amp;quot;Segoe UI&amp;quot;, &amp;quot;Noto Sans&amp;quot;, Helvetica, Arial, sans-serif, &amp;quot;Apple Color Emoji&amp;quot;, &amp;quot;Segoe UI Emoji&amp;quot;; font-size: 16px;&quot;&gt;&lt;li class=&quot;task-list-item&quot; style=&quot;box-sizing: border-box; list-style-type: none; margin-top: var(--base-size-4);&quot;&gt;&lt;p&gt;&lt;/p&gt;&lt;/li&gt;&lt;/ul&gt;" style="rounded=0;whiteSpace=wrap;html=1;glass=0;fillColor=none;strokeColor=#b85450;align=left;verticalAlign=middle;" vertex="1" parent="1">
          <mxGeometry x="670" y="770" width="480" height="100" as="geometry" />
        </mxCell>
        <mxCell id="Qsz2sCaqQmOKu8iOu2gR-17" value="&lt;ul class=&quot;contains-task-list&quot; style=&quot;box-sizing: border-box; padding-left: 2em; margin-top: 0px; margin-bottom: var(--base-size-16); caret-color: rgb(31, 35, 40); color: rgb(31, 35, 40); font-family: -apple-system, BlinkMacSystemFont, &amp;quot;Segoe UI&amp;quot;, &amp;quot;Noto Sans&amp;quot;, Helvetica, Arial, sans-serif, &amp;quot;Apple Color Emoji&amp;quot;, &amp;quot;Segoe UI Emoji&amp;quot;; font-size: 16px;&quot;&gt;&lt;li class=&quot;task-list-item&quot; style=&quot;box-sizing: border-box; list-style-type: none; margin-top: var(--base-size-4);&quot;&gt;&lt;/li&gt;&lt;/ul&gt;&lt;p style=&quot;box-sizing: border-box; margin-top: var(--base-size-16); margin-bottom: var(--base-size-16); caret-color: rgb(31, 35, 40); color: rgb(31, 35, 40); font-family: -apple-system, BlinkMacSystemFont, &amp;quot;Segoe UI&amp;quot;, &amp;quot;Noto Sans&amp;quot;, Helvetica, Arial, sans-serif, &amp;quot;Apple Color Emoji&amp;quot;, &amp;quot;Segoe UI Emoji&amp;quot;; font-size: 16px;&quot; dir=&quot;auto&quot;&gt;&lt;span style=&quot;box-sizing: border-box; font-weight: var(--base-text-weight-semibold, 600);&quot;&gt;Income &amp;amp; Expense Statistics&lt;/span&gt;&lt;/p&gt;&lt;ul style=&quot;box-sizing: border-box; padding-left: 2em; margin-top: 0px; margin-bottom: 0px; caret-color: rgb(31, 35, 40); color: rgb(31, 35, 40); font-family: -apple-system, BlinkMacSystemFont, &amp;quot;Segoe UI&amp;quot;, &amp;quot;Noto Sans&amp;quot;, Helvetica, Arial, sans-serif, &amp;quot;Apple Color Emoji&amp;quot;, &amp;quot;Segoe UI Emoji&amp;quot;; font-size: 16px;&quot; dir=&quot;auto&quot;&gt;&lt;li style=&quot;box-sizing: border-box;&quot;&gt;The app must provide an overview of income and expenses.&lt;/li&gt;&lt;li style=&quot;box-sizing: border-box; margin-top: 0.25em;&quot;&gt;The app must visualize income and expenses data using graphical representation with charts.&lt;/li&gt;&lt;/ul&gt;&lt;ul class=&quot;contains-task-list&quot; style=&quot;box-sizing: border-box; padding-left: 2em; margin-top: 0px; margin-bottom: var(--base-size-16); caret-color: rgb(31, 35, 40); color: rgb(31, 35, 40); font-family: -apple-system, BlinkMacSystemFont, &amp;quot;Segoe UI&amp;quot;, &amp;quot;Noto Sans&amp;quot;, Helvetica, Arial, sans-serif, &amp;quot;Apple Color Emoji&amp;quot;, &amp;quot;Segoe UI Emoji&amp;quot;; font-size: 16px;&quot;&gt;&lt;li class=&quot;task-list-item&quot; style=&quot;box-sizing: border-box; list-style-type: none; margin-top: var(--base-size-4);&quot;&gt;&lt;p&gt;&lt;/p&gt;&lt;/li&gt;&lt;/ul&gt;" style="rounded=0;whiteSpace=wrap;html=1;glass=0;fillColor=none;strokeColor=#b85450;align=left;verticalAlign=middle;" vertex="1" parent="1">
          <mxGeometry x="1840" y="580" width="480" height="110" as="geometry" />
        </mxCell>
        <mxCell id="Qsz2sCaqQmOKu8iOu2gR-18" value="&lt;ul class=&quot;contains-task-list&quot; style=&quot;box-sizing: border-box; padding-left: 2em; margin-top: 0px; margin-bottom: var(--base-size-16); caret-color: rgb(31, 35, 40); color: rgb(31, 35, 40); font-family: -apple-system, BlinkMacSystemFont, &amp;quot;Segoe UI&amp;quot;, &amp;quot;Noto Sans&amp;quot;, Helvetica, Arial, sans-serif, &amp;quot;Apple Color Emoji&amp;quot;, &amp;quot;Segoe UI Emoji&amp;quot;; font-size: 16px;&quot;&gt;&lt;li class=&quot;task-list-item&quot; style=&quot;box-sizing: border-box; list-style-type: none; margin-top: var(--base-size-4);&quot;&gt;&lt;/li&gt;&lt;li class=&quot;task-list-item&quot; style=&quot;box-sizing: border-box; list-style-type: none; margin-top: var(--base-size-4);&quot;&gt;&lt;p dir=&quot;auto&quot; style=&quot;box-sizing: border-box; margin-top: var(--base-size-16); margin-bottom: var(--base-size-16); font-family: -apple-system, BlinkMacSystemFont, &amp;quot;Segoe UI&amp;quot;, &amp;quot;Noto Sans&amp;quot;, Helvetica, Arial, sans-serif, &amp;quot;Apple Color Emoji&amp;quot;, &amp;quot;Segoe UI Emoji&amp;quot;;&quot;&gt;&lt;/p&gt;&lt;/li&gt;&lt;/ul&gt;&lt;p style=&quot;background-color: initial; color: rgb(31, 35, 40); font-family: -apple-system, BlinkMacSystemFont, &amp;quot;Segoe UI&amp;quot;, &amp;quot;Noto Sans&amp;quot;, Helvetica, Arial, sans-serif, &amp;quot;Apple Color Emoji&amp;quot;, &amp;quot;Segoe UI Emoji&amp;quot;; font-size: 16px; caret-color: rgb(31, 35, 40); box-sizing: border-box; margin-top: var(--base-size-16); margin-bottom: var(--base-size-16); display: inline !important;&quot; dir=&quot;auto&quot;&gt;&lt;span style=&quot;box-sizing: border-box; font-weight: var(--base-text-weight-semibold, 600);&quot;&gt;Session&lt;/span&gt;&lt;/p&gt;&lt;div&gt;&lt;p style=&quot;color: rgb(31, 35, 40); font-family: -apple-system, BlinkMacSystemFont, &amp;quot;Segoe UI&amp;quot;, &amp;quot;Noto Sans&amp;quot;, Helvetica, Arial, sans-serif, &amp;quot;Apple Color Emoji&amp;quot;, &amp;quot;Segoe UI Emoji&amp;quot;; font-size: 16px; caret-color: rgb(31, 35, 40); background-color: initial; box-sizing: border-box; margin-top: var(--base-size-16); margin-bottom: var(--base-size-16); display: inline !important;&quot; dir=&quot;auto&quot;&gt;&lt;span style=&quot;background-color: initial; font-family: -apple-system, BlinkMacSystemFont, &amp;quot;Segoe UI&amp;quot;, &amp;quot;Noto Sans&amp;quot;, Helvetica, Arial, sans-serif, &amp;quot;Apple Color Emoji&amp;quot;, &amp;quot;Segoe UI Emoji&amp;quot;;&quot;&gt;The app must retain the session (JWT/access token) after an initial login.&lt;/span&gt;&lt;br&gt;&lt;/p&gt;&lt;ul class=&quot;contains-task-list&quot; style=&quot;box-sizing: border-box; padding-left: 2em; margin-top: 0px; margin-bottom: var(--base-size-16); caret-color: rgb(31, 35, 40); color: rgb(31, 35, 40); font-family: -apple-system, BlinkMacSystemFont, &amp;quot;Segoe UI&amp;quot;, &amp;quot;Noto Sans&amp;quot;, Helvetica, Arial, sans-serif, &amp;quot;Apple Color Emoji&amp;quot;, &amp;quot;Segoe UI Emoji&amp;quot;; font-size: 16px;&quot;&gt;&lt;li class=&quot;task-list-item&quot; style=&quot;box-sizing: border-box; list-style-type: none; margin-top: var(--base-size-4);&quot;&gt;&lt;p&gt;&lt;/p&gt;&lt;/li&gt;&lt;/ul&gt;&lt;/div&gt;" style="rounded=0;whiteSpace=wrap;html=1;glass=0;fillColor=none;strokeColor=#b85450;align=left;verticalAlign=middle;" vertex="1" parent="1">
          <mxGeometry x="1250" y="240" width="480" height="80" as="geometry" />
        </mxCell>
        <mxCell id="Qsz2sCaqQmOKu8iOu2gR-19" value="&lt;p dir=&quot;auto&quot; style=&quot;box-sizing: border-box; margin-top: var(--base-size-16); margin-bottom: var(--base-size-16); caret-color: rgb(31, 35, 40); color: rgb(31, 35, 40); font-family: -apple-system, BlinkMacSystemFont, &amp;quot;Segoe UI&amp;quot;, &amp;quot;Noto Sans&amp;quot;, Helvetica, Arial, sans-serif, &amp;quot;Apple Color Emoji&amp;quot;, &amp;quot;Segoe UI Emoji&amp;quot;; font-size: 16px;&quot;&gt;&lt;span style=&quot;box-sizing: border-box; font-weight: var(--base-text-weight-semibold, 600);&quot;&gt;Automated Money Distribution Rules&lt;/span&gt;&lt;/p&gt;&lt;ul dir=&quot;auto&quot; style=&quot;box-sizing: border-box; padding-left: 2em; margin-top: 0px; margin-bottom: 0px; caret-color: rgb(31, 35, 40); color: rgb(31, 35, 40); font-family: -apple-system, BlinkMacSystemFont, &amp;quot;Segoe UI&amp;quot;, &amp;quot;Noto Sans&amp;quot;, Helvetica, Arial, sans-serif, &amp;quot;Apple Color Emoji&amp;quot;, &amp;quot;Segoe UI Emoji&amp;quot;; font-size: 16px;&quot;&gt;&lt;li style=&quot;box-sizing: border-box;&quot;&gt;The app should allow users to define automated money distribution rules (e.g., &quot;Save 10% of my salary automatically&quot;).&lt;/li&gt;&lt;li style=&quot;box-sizing: border-box; margin-top: 0.25em;&quot;&gt;The app should automatically execute these rules when new income arrives.&lt;/li&gt;&lt;/ul&gt;" style="rounded=0;whiteSpace=wrap;html=1;fillColor=none;strokeColor=#d79b00;align=left;verticalAlign=middle;" vertex="1" parent="1">
          <mxGeometry x="1840" y="710" width="480" height="130" as="geometry" />
        </mxCell>
        <mxCell id="Qsz2sCaqQmOKu8iOu2gR-20" value="&lt;p dir=&quot;auto&quot; style=&quot;box-sizing: border-box; margin-top: var(--base-size-16); margin-bottom: var(--base-size-16); caret-color: rgb(31, 35, 40); color: rgb(31, 35, 40); font-family: -apple-system, BlinkMacSystemFont, &amp;quot;Segoe UI&amp;quot;, &amp;quot;Noto Sans&amp;quot;, Helvetica, Arial, sans-serif, &amp;quot;Apple Color Emoji&amp;quot;, &amp;quot;Segoe UI Emoji&amp;quot;; font-size: 16px;&quot;&gt;&lt;span style=&quot;box-sizing: border-box; font-weight: var(--base-text-weight-semibold, 600);&quot;&gt;Category-Based Budgeting&lt;/span&gt;&lt;/p&gt;&lt;span style=&quot;color: rgb(31, 35, 40); font-family: -apple-system, BlinkMacSystemFont, &amp;quot;Segoe UI&amp;quot;, &amp;quot;Noto Sans&amp;quot;, Helvetica, Arial, sans-serif, &amp;quot;Apple Color Emoji&amp;quot;, &amp;quot;Segoe UI Emoji&amp;quot;; font-size: 16px; caret-color: rgb(31, 35, 40); background-color: initial;&quot;&gt;The app should allow users to define budgets for different spending categories. These are visually enforced.&lt;/span&gt;" style="rounded=0;whiteSpace=wrap;html=1;fillColor=none;strokeColor=#d79b00;align=left;verticalAlign=middle;" vertex="1" parent="1">
          <mxGeometry x="2330" y="580" width="480" height="80" as="geometry" />
        </mxCell>
        <mxCell id="Qsz2sCaqQmOKu8iOu2gR-21" value="&lt;p dir=&quot;auto&quot; style=&quot;box-sizing: border-box; margin-top: var(--base-size-16); margin-bottom: var(--base-size-16); caret-color: rgb(31, 35, 40); color: rgb(31, 35, 40); font-family: -apple-system, BlinkMacSystemFont, &amp;quot;Segoe UI&amp;quot;, &amp;quot;Noto Sans&amp;quot;, Helvetica, Arial, sans-serif, &amp;quot;Apple Color Emoji&amp;quot;, &amp;quot;Segoe UI Emoji&amp;quot;; font-size: 16px;&quot;&gt;&lt;span style=&quot;box-sizing: border-box; font-weight: var(--base-text-weight-semibold, 600);&quot;&gt;Dark Mode Support&lt;/span&gt;&lt;/p&gt;&lt;span style=&quot;color: rgb(31, 35, 40); font-family: -apple-system, BlinkMacSystemFont, &amp;quot;Segoe UI&amp;quot;, &amp;quot;Noto Sans&amp;quot;, Helvetica, Arial, sans-serif, &amp;quot;Apple Color Emoji&amp;quot;, &amp;quot;Segoe UI Emoji&amp;quot;; font-size: 16px; caret-color: rgb(31, 35, 40); background-color: initial;&quot;&gt;The app should provide a dark mode option.&lt;/span&gt;" style="rounded=0;whiteSpace=wrap;html=1;fillColor=none;strokeColor=#d79b00;align=left;verticalAlign=middle;" vertex="1" parent="1">
          <mxGeometry x="1250" y="430" width="480" height="60" as="geometry" />
        </mxCell>
        <mxCell id="Qsz2sCaqQmOKu8iOu2gR-22" value="&lt;p dir=&quot;auto&quot; style=&quot;box-sizing: border-box; margin-top: var(--base-size-16); margin-bottom: var(--base-size-16); caret-color: rgb(31, 35, 40); color: rgb(31, 35, 40); font-family: -apple-system, BlinkMacSystemFont, &amp;quot;Segoe UI&amp;quot;, &amp;quot;Noto Sans&amp;quot;, Helvetica, Arial, sans-serif, &amp;quot;Apple Color Emoji&amp;quot;, &amp;quot;Segoe UI Emoji&amp;quot;; font-size: 16px;&quot;&gt;&lt;span style=&quot;box-sizing: border-box; font-weight: var(--base-text-weight-semibold, 600);&quot;&gt;Stock Portfolio (Mock Data)&lt;/span&gt;&lt;/p&gt;&lt;ul dir=&quot;auto&quot; style=&quot;box-sizing: border-box; padding-left: 2em; margin-top: 0px; margin-bottom: 0px; caret-color: rgb(31, 35, 40); color: rgb(31, 35, 40); font-family: -apple-system, BlinkMacSystemFont, &amp;quot;Segoe UI&amp;quot;, &amp;quot;Noto Sans&amp;quot;, Helvetica, Arial, sans-serif, &amp;quot;Apple Color Emoji&amp;quot;, &amp;quot;Segoe UI Emoji&amp;quot;; font-size: 16px;&quot;&gt;&lt;li style=&quot;box-sizing: border-box;&quot;&gt;The app could include a simulated stock portfolio feature.&lt;/li&gt;&lt;li style=&quot;box-sizing: border-box; margin-top: 0.25em;&quot;&gt;The app could display historical mock data rather than real-time stock values.&lt;/li&gt;&lt;/ul&gt;" style="rounded=0;whiteSpace=wrap;html=1;fillColor=none;strokeColor=#d6b656;align=left;verticalAlign=middle;" vertex="1" parent="1">
          <mxGeometry x="1840" y="300" width="480" height="110" as="geometry" />
        </mxCell>
        <mxCell id="Qsz2sCaqQmOKu8iOu2gR-23" value="&lt;p dir=&quot;auto&quot; style=&quot;box-sizing: border-box; margin-top: var(--base-size-16); margin-bottom: var(--base-size-16); caret-color: rgb(31, 35, 40); color: rgb(31, 35, 40); font-family: -apple-system, BlinkMacSystemFont, &amp;quot;Segoe UI&amp;quot;, &amp;quot;Noto Sans&amp;quot;, Helvetica, Arial, sans-serif, &amp;quot;Apple Color Emoji&amp;quot;, &amp;quot;Segoe UI Emoji&amp;quot;; font-size: 16px;&quot;&gt;&lt;span style=&quot;box-sizing: border-box; font-weight: var(--base-text-weight-semibold, 600);&quot;&gt;Custom Transaction Tags&lt;/span&gt;&lt;/p&gt;&lt;span style=&quot;color: rgb(31, 35, 40); font-family: -apple-system, BlinkMacSystemFont, &amp;quot;Segoe UI&amp;quot;, &amp;quot;Noto Sans&amp;quot;, Helvetica, Arial, sans-serif, &amp;quot;Apple Color Emoji&amp;quot;, &amp;quot;Segoe UI Emoji&amp;quot;; font-size: 16px; caret-color: rgb(31, 35, 40); background-color: initial;&quot;&gt;The app could allow users to create custom tags for transactions and enable filtering based on these tags.&lt;/span&gt;" style="rounded=0;whiteSpace=wrap;html=1;fillColor=none;strokeColor=#d6b656;align=left;verticalAlign=middle;" vertex="1" parent="1">
          <mxGeometry x="1840" y="860" width="480" height="80" as="geometry" />
        </mxCell>
        <mxCell id="Qsz2sCaqQmOKu8iOu2gR-24" value="&lt;p dir=&quot;auto&quot; style=&quot;box-sizing: border-box; margin-top: var(--base-size-16); margin-bottom: var(--base-size-16); caret-color: rgb(31, 35, 40); color: rgb(31, 35, 40); font-family: -apple-system, BlinkMacSystemFont, &amp;quot;Segoe UI&amp;quot;, &amp;quot;Noto Sans&amp;quot;, Helvetica, Arial, sans-serif, &amp;quot;Apple Color Emoji&amp;quot;, &amp;quot;Segoe UI Emoji&amp;quot;; font-size: 16px;&quot;&gt;&lt;span style=&quot;box-sizing: border-box; font-weight: var(--base-text-weight-semibold, 600);&quot;&gt;Badges and Rewards&lt;/span&gt;&lt;/p&gt;&lt;span style=&quot;color: rgb(31, 35, 40); font-family: -apple-system, BlinkMacSystemFont, &amp;quot;Segoe UI&amp;quot;, &amp;quot;Noto Sans&amp;quot;, Helvetica, Arial, sans-serif, &amp;quot;Apple Color Emoji&amp;quot;, &amp;quot;Segoe UI Emoji&amp;quot;; font-size: 16px; caret-color: rgb(31, 35, 40); background-color: initial;&quot;&gt;The app could include achievement badges or rewards for meeting savings goals or staying within budget.&lt;/span&gt;" style="rounded=0;whiteSpace=wrap;html=1;fillColor=none;strokeColor=#d6b656;align=left;verticalAlign=middle;" vertex="1" parent="1">
          <mxGeometry x="1270" y="710" width="480" height="80" as="geometry" />
        </mxCell>
        <mxCell id="Qsz2sCaqQmOKu8iOu2gR-25" value="&lt;p dir=&quot;auto&quot; style=&quot;box-sizing: border-box; margin-top: var(--base-size-16); margin-bottom: var(--base-size-16); caret-color: rgb(31, 35, 40); color: rgb(31, 35, 40); font-family: -apple-system, BlinkMacSystemFont, &amp;quot;Segoe UI&amp;quot;, &amp;quot;Noto Sans&amp;quot;, Helvetica, Arial, sans-serif, &amp;quot;Apple Color Emoji&amp;quot;, &amp;quot;Segoe UI Emoji&amp;quot;; font-size: 16px;&quot;&gt;&lt;span style=&quot;box-sizing: border-box; font-weight: var(--base-text-weight-semibold, 600);&quot;&gt;Onboarding Flow/Tutorials for new Users&lt;/span&gt;&lt;/p&gt;&lt;span style=&quot;color: rgb(31, 35, 40); font-family: -apple-system, BlinkMacSystemFont, &amp;quot;Segoe UI&amp;quot;, &amp;quot;Noto Sans&amp;quot;, Helvetica, Arial, sans-serif, &amp;quot;Apple Color Emoji&amp;quot;, &amp;quot;Segoe UI Emoji&amp;quot;; font-size: 16px; caret-color: rgb(31, 35, 40); background-color: initial;&quot;&gt;The app must include an onboarding flow to guide new users and explain core features.&lt;/span&gt;" style="rounded=0;whiteSpace=wrap;html=1;fillColor=none;strokeColor=#d6b656;align=left;verticalAlign=middle;" vertex="1" parent="1">
          <mxGeometry x="1250" y="340" width="480" height="70" as="geometry" />
        </mxCell>
        <mxCell id="Qsz2sCaqQmOKu8iOu2gR-27" value="&lt;span style=&quot;font-size: 32px;&quot;&gt;&lt;b&gt;Getting Data&lt;/b&gt;&lt;/span&gt;" style="text;html=1;align=center;verticalAlign=middle;whiteSpace=wrap;rounded=0;fillColor=none;" vertex="1" parent="1">
          <mxGeometry x="670" y="280" width="200" height="30" as="geometry" />
        </mxCell>
        <mxCell id="Qsz2sCaqQmOKu8iOu2gR-28" value="&lt;span style=&quot;font-size: 32px;&quot;&gt;&lt;b&gt;Tags and Categorization&lt;/b&gt;&lt;/span&gt;" style="text;html=1;align=center;verticalAlign=middle;whiteSpace=wrap;rounded=0;fillColor=none;" vertex="1" parent="1">
          <mxGeometry x="1870" y="520" width="400" height="30" as="geometry" />
        </mxCell>
        <mxCell id="Qsz2sCaqQmOKu8iOu2gR-29" value="&lt;span style=&quot;font-size: 32px;&quot;&gt;&lt;b&gt;Client&lt;/b&gt;&lt;/span&gt;" style="text;html=1;align=center;verticalAlign=middle;whiteSpace=wrap;rounded=0;fillColor=none;" vertex="1" parent="1">
          <mxGeometry x="1390" y="190" width="200" height="30" as="geometry" />
        </mxCell>
        <mxCell id="Qsz2sCaqQmOKu8iOu2gR-30" value="&lt;span style=&quot;font-size: 32px;&quot;&gt;&lt;b&gt;MISC&lt;/b&gt;&lt;/span&gt;" style="text;html=1;align=center;verticalAlign=middle;whiteSpace=wrap;rounded=0;fillColor=none;" vertex="1" parent="1">
          <mxGeometry x="1870" y="250" width="400" height="30" as="geometry" />
        </mxCell>
        <mxCell id="Qsz2sCaqQmOKu8iOu2gR-31" value="&lt;span style=&quot;font-size: 32px;&quot;&gt;&lt;b&gt;Spaces&lt;/b&gt;&lt;/span&gt;" style="text;html=1;align=center;verticalAlign=middle;whiteSpace=wrap;rounded=0;fillColor=none;" vertex="1" parent="1">
          <mxGeometry x="710" y="590" width="400" height="30" as="geometry" />
        </mxCell>
        <mxCell id="Qsz2sCaqQmOKu8iOu2gR-34" value="Space:&lt;div&gt;1x deafult&lt;/div&gt;&lt;div&gt;n x custom&lt;/div&gt;&lt;div&gt;&lt;br&gt;&lt;/div&gt;&lt;div&gt;&lt;span style=&quot;background-color: initial;&quot;&gt;liste von transactions (id)&amp;nbsp;&lt;/span&gt;&lt;/div&gt;&lt;div&gt;&lt;span style=&quot;background-color: initial;&quot;&gt;balance (muss upgedated werden)&lt;/span&gt;&lt;/div&gt;&lt;div&gt;?goal_date&lt;/div&gt;&lt;div&gt;?goal_balance&lt;/div&gt;" style="text;html=1;align=center;verticalAlign=middle;resizable=0;points=[];autosize=1;strokeColor=none;fillColor=none;" vertex="1" parent="1">
          <mxGeometry x="810" y="890" width="210" height="130" as="geometry" />
        </mxCell>
        <mxCell id="Qsz2sCaqQmOKu8iOu2gR-35" value="= transactions in time range grouped by tag" style="text;html=1;align=center;verticalAlign=middle;resizable=0;points=[];autosize=1;strokeColor=none;fillColor=none;" vertex="1" parent="1">
          <mxGeometry x="2320" y="660" width="250" height="30" as="geometry" />
        </mxCell>
        <mxCell id="Qsz2sCaqQmOKu8iOu2gR-36" value="= income with tag -&amp;gt; prozent (kann nie zuviel sein) zu space" style="text;html=1;align=center;verticalAlign=middle;resizable=0;points=[];autosize=1;strokeColor=none;fillColor=none;" vertex="1" parent="1">
          <mxGeometry x="2330" y="750" width="340" height="30" as="geometry" />
        </mxCell>
        <mxCell id="Qsz2sCaqQmOKu8iOu2gR-37" value="create custom tag from existing:&lt;div&gt;&quot;custom tag abc&quot; = &quot;shopping&quot; || &quot;travel&quot;&lt;/div&gt;&lt;div&gt;&quot;custom tag i like to eat&quot; = &quot;food&quot;&lt;/div&gt;&lt;div&gt;&lt;br&gt;&lt;/div&gt;&lt;div&gt;the filters and rules can be applied&amp;nbsp;&lt;/div&gt;&lt;div&gt;to both, custom and generic tags&lt;/div&gt;" style="text;html=1;align=center;verticalAlign=middle;resizable=0;points=[];autosize=1;strokeColor=none;fillColor=none;" vertex="1" parent="1">
          <mxGeometry x="2320" y="850" width="240" height="100" as="geometry" />
        </mxCell>
        <mxCell id="Qsz2sCaqQmOKu8iOu2gR-39" value="" style="rounded=0;whiteSpace=wrap;html=1;fillColor=none;" vertex="1" parent="1">
          <mxGeometry x="1840" y="1110" width="440" height="490" as="geometry" />
        </mxCell>
        <mxCell id="Qsz2sCaqQmOKu8iOu2gR-41" value="" style="rounded=0;whiteSpace=wrap;html=1;fillColor=none;" vertex="1" parent="1">
          <mxGeometry x="2405" y="1280" width="120" height="150" as="geometry" />
        </mxCell>
        <mxCell id="Qsz2sCaqQmOKu8iOu2gR-42" value="" style="rounded=0;whiteSpace=wrap;html=1;fillColor=none;" vertex="1" parent="1">
          <mxGeometry x="2405" y="1440" width="120" height="150" as="geometry" />
        </mxCell>
        <mxCell id="Qsz2sCaqQmOKu8iOu2gR-43" value="Bankkonto" style="text;html=1;align=center;verticalAlign=middle;whiteSpace=wrap;rounded=0;fillColor=none;" vertex="1" parent="1">
          <mxGeometry x="2030" y="1120" width="60" height="30" as="geometry" />
        </mxCell>
        <mxCell id="Qsz2sCaqQmOKu8iOu2gR-45" value="Space 1" style="text;html=1;align=center;verticalAlign=middle;whiteSpace=wrap;rounded=0;fillColor=none;" vertex="1" parent="1">
          <mxGeometry x="2435" y="1280" width="60" height="30" as="geometry" />
        </mxCell>
        <mxCell id="Qsz2sCaqQmOKu8iOu2gR-46" value="Space 2" style="text;html=1;align=center;verticalAlign=middle;whiteSpace=wrap;rounded=0;fillColor=none;" vertex="1" parent="1">
          <mxGeometry x="2435" y="1440" width="60" height="30" as="geometry" />
        </mxCell>
        <mxCell id="Qsz2sCaqQmOKu8iOu2gR-50" value="" style="rounded=1;whiteSpace=wrap;html=1;fillColor=none;strokeColor=#b85450;" vertex="1" parent="1">
          <mxGeometry x="1870" y="1175" width="250" height="60" as="geometry" />
        </mxCell>
        <mxCell id="Qsz2sCaqQmOKu8iOu2gR-51" value="" style="rounded=1;whiteSpace=wrap;html=1;fillColor=none;strokeColor=#6c8ebf;" vertex="1" parent="1">
          <mxGeometry x="1870" y="1255" width="250" height="60" as="geometry" />
        </mxCell>
        <mxCell id="Qsz2sCaqQmOKu8iOu2gR-52" value="" style="rounded=1;whiteSpace=wrap;html=1;fillColor=none;strokeColor=#82b366;" vertex="1" parent="1">
          <mxGeometry x="1870" y="1340" width="250" height="60" as="geometry" />
        </mxCell>
        <mxCell id="Qsz2sCaqQmOKu8iOu2gR-54" value="" style="rounded=0;whiteSpace=wrap;html=1;fillColor=none;" vertex="1" parent="1">
          <mxGeometry x="2405" y="1120" width="120" height="150" as="geometry" />
        </mxCell>
        <mxCell id="Qsz2sCaqQmOKu8iOu2gR-55" value="Space 0" style="text;html=1;align=center;verticalAlign=middle;whiteSpace=wrap;rounded=0;fillColor=none;" vertex="1" parent="1">
          <mxGeometry x="2435" y="1120" width="60" height="30" as="geometry" />
        </mxCell>
        <mxCell id="Qsz2sCaqQmOKu8iOu2gR-57" value="Balance" style="rhombus;whiteSpace=wrap;html=1;fillColor=none;strokeColor=#d79b00;" vertex="1" parent="1">
          <mxGeometry x="2180" y="1130" width="80" height="80" as="geometry" />
        </mxCell>
        <mxCell id="Qsz2sCaqQmOKu8iOu2gR-58" value="Balance" style="rhombus;whiteSpace=wrap;html=1;fillColor=none;strokeColor=#d79b00;" vertex="1" parent="1">
          <mxGeometry x="2425" y="1165" width="80" height="80" as="geometry" />
        </mxCell>
        <mxCell id="Qsz2sCaqQmOKu8iOu2gR-59" value="Balance" style="rhombus;whiteSpace=wrap;html=1;fillColor=none;strokeColor=#d79b00;" vertex="1" parent="1">
          <mxGeometry x="2425" y="1325" width="80" height="80" as="geometry" />
        </mxCell>
        <mxCell id="Qsz2sCaqQmOKu8iOu2gR-60" value="Balance" style="rhombus;whiteSpace=wrap;html=1;fillColor=none;strokeColor=#d79b00;" vertex="1" parent="1">
          <mxGeometry x="2425" y="1490" width="80" height="80" as="geometry" />
        </mxCell>
        <mxCell id="Qsz2sCaqQmOKu8iOu2gR-61" value="" style="shape=partialRectangle;whiteSpace=wrap;html=1;bottom=1;right=1;left=1;top=0;fillColor=none;routingCenterX=-0.5;rotation=90;" vertex="1" parent="1">
          <mxGeometry x="2165" y="1320" width="500" height="60" as="geometry" />
        </mxCell>
        <mxCell id="Qsz2sCaqQmOKu8iOu2gR-62" value="= summe" style="shape=flexArrow;endArrow=classic;html=1;rounded=0;entryX=0.5;entryY=1;entryDx=0;entryDy=0;fillColor=none;" edge="1" parent="1" source="Qsz2sCaqQmOKu8iOu2gR-57" target="Qsz2sCaqQmOKu8iOu2gR-61">
          <mxGeometry width="50" height="50" relative="1" as="geometry">
            <mxPoint x="2290" y="1305" as="sourcePoint" />
            <mxPoint x="2380" y="1340" as="targetPoint" />
          </mxGeometry>
        </mxCell>
        <mxCell id="Qsz2sCaqQmOKu8iOu2gR-64" value="Anders Konto" style="rounded=0;whiteSpace=wrap;html=1;fillColor=none;" vertex="1" parent="1">
          <mxGeometry x="855" y="1224" width="120" height="331" as="geometry" />
        </mxCell>
        <mxCell id="Qsz2sCaqQmOKu8iOu2gR-65" value="mein Konto:&amp;nbsp;&lt;div&gt;100€&lt;/div&gt;" style="rounded=0;whiteSpace=wrap;html=1;fillColor=none;" vertex="1" parent="1">
          <mxGeometry x="1099" y="1224" width="350" height="334" as="geometry" />
        </mxCell>
        <mxCell id="Qsz2sCaqQmOKu8iOu2gR-66" value="100 €" style="rounded=1;whiteSpace=wrap;html=1;fillColor=#f8cecc;strokeColor=#b85450;" vertex="1" parent="1">
          <mxGeometry x="866" y="1446" width="98" height="41" as="geometry" />
        </mxCell>
        <mxCell id="Qsz2sCaqQmOKu8iOu2gR-67" value="100 €" style="rounded=1;whiteSpace=wrap;html=1;fillColor=#f8cecc;strokeColor=#b85450;" vertex="1" parent="1">
          <mxGeometry x="1113" y="1446" width="98" height="41" as="geometry" />
        </mxCell>
        <mxCell id="Qsz2sCaqQmOKu8iOu2gR-68" value="" style="shape=flexArrow;endArrow=classic;html=1;rounded=0;fillColor=none;" edge="1" parent="1" source="Qsz2sCaqQmOKu8iOu2gR-66" target="Qsz2sCaqQmOKu8iOu2gR-67">
          <mxGeometry width="50" height="50" relative="1" as="geometry">
            <mxPoint x="989" y="1467" as="sourcePoint" />
            <mxPoint x="1084" y="1467" as="targetPoint" />
          </mxGeometry>
        </mxCell>
        <mxCell id="Qsz2sCaqQmOKu8iOu2gR-69" value="Space 0:&lt;div&gt;90€&lt;/div&gt;" style="rounded=0;whiteSpace=wrap;html=1;fillColor=#dae8fc;strokeColor=#6c8ebf;" vertex="1" parent="1">
          <mxGeometry x="1099" y="1224" width="114" height="121" as="geometry" />
        </mxCell>
        <mxCell id="Qsz2sCaqQmOKu8iOu2gR-70" value="Space 1:&lt;br&gt;10€&lt;br&gt;&lt;div&gt;&lt;br&gt;&lt;/div&gt;&lt;div&gt;Regel: 10% aller Incoming&lt;/div&gt;" style="rounded=0;whiteSpace=wrap;html=1;fillColor=#d5e8d4;strokeColor=#82b366;" vertex="1" parent="1">
          <mxGeometry x="1213.5" y="1224.5" width="114.5" height="121" as="geometry" />
        </mxCell>
        <mxCell id="Qsz2sCaqQmOKu8iOu2gR-71" value="Space 2" style="rounded=0;whiteSpace=wrap;html=1;fillColor=#e1d5e7;strokeColor=#9673a6;" vertex="1" parent="1">
          <mxGeometry x="1329" y="1224" width="120" height="121" as="geometry" />
        </mxCell>
        <mxCell id="Qsz2sCaqQmOKu8iOu2gR-72" value="" style="shape=flexArrow;endArrow=classic;html=1;rounded=0;" edge="1" parent="1" source="Qsz2sCaqQmOKu8iOu2gR-67" target="Qsz2sCaqQmOKu8iOu2gR-69">
          <mxGeometry width="50" height="50" relative="1" as="geometry">
            <mxPoint x="1161" y="1416" as="sourcePoint" />
            <mxPoint x="1211" y="1366" as="targetPoint" />
          </mxGeometry>
        </mxCell>
        <mxCell id="Qsz2sCaqQmOKu8iOu2gR-73" value="" style="shape=flexArrow;endArrow=classic;html=1;rounded=0;" edge="1" parent="1" source="Qsz2sCaqQmOKu8iOu2gR-67" target="Qsz2sCaqQmOKu8iOu2gR-70">
          <mxGeometry width="50" height="50" relative="1" as="geometry">
            <mxPoint x="1193" y="1475" as="sourcePoint" />
            <mxPoint x="1243" y="1425" as="targetPoint" />
          </mxGeometry>
        </mxCell>
        <mxCell id="Qsz2sCaqQmOKu8iOu2gR-74" value="users" style="rounded=1;whiteSpace=wrap;html=1;" vertex="1" parent="1">
          <mxGeometry x="3100" y="585" width="120" height="60" as="geometry" />
        </mxCell>
        <mxCell id="Qsz2sCaqQmOKu8iOu2gR-82" style="edgeStyle=orthogonalEdgeStyle;shape=connector;rounded=0;orthogonalLoop=1;jettySize=auto;html=1;strokeColor=default;align=center;verticalAlign=middle;fontFamily=Helvetica;fontSize=11;fontColor=default;labelBackgroundColor=default;endArrow=none;endFill=0;" edge="1" parent="1" source="Qsz2sCaqQmOKu8iOu2gR-75" target="Qsz2sCaqQmOKu8iOu2gR-76">
          <mxGeometry relative="1" as="geometry" />
        </mxCell>
        <mxCell id="Qsz2sCaqQmOKu8iOu2gR-83" style="edgeStyle=orthogonalEdgeStyle;shape=connector;rounded=0;orthogonalLoop=1;jettySize=auto;html=1;strokeColor=default;align=center;verticalAlign=middle;fontFamily=Helvetica;fontSize=11;fontColor=default;labelBackgroundColor=default;endArrow=none;endFill=0;" edge="1" parent="1" source="Qsz2sCaqQmOKu8iOu2gR-75" target="Qsz2sCaqQmOKu8iOu2gR-74">
          <mxGeometry relative="1" as="geometry" />
        </mxCell>
        <mxCell id="Qsz2sCaqQmOKu8iOu2gR-75" value="accounts" style="rounded=1;whiteSpace=wrap;html=1;" vertex="1" parent="1">
          <mxGeometry x="3327" y="585" width="120" height="60" as="geometry" />
        </mxCell>
        <mxCell id="Qsz2sCaqQmOKu8iOu2gR-76" value="spaces" style="rounded=1;whiteSpace=wrap;html=1;" vertex="1" parent="1">
          <mxGeometry x="3327" y="475" width="120" height="60" as="geometry" />
        </mxCell>
        <mxCell id="Qsz2sCaqQmOKu8iOu2gR-80" style="edgeStyle=orthogonalEdgeStyle;rounded=0;orthogonalLoop=1;jettySize=auto;html=1;endArrow=none;endFill=0;" edge="1" parent="1" source="Qsz2sCaqQmOKu8iOu2gR-77" target="Qsz2sCaqQmOKu8iOu2gR-76">
          <mxGeometry relative="1" as="geometry" />
        </mxCell>
        <mxCell id="Qsz2sCaqQmOKu8iOu2gR-77" value="rules" style="rounded=1;whiteSpace=wrap;html=1;" vertex="1" parent="1">
          <mxGeometry x="3327" y="357" width="120" height="60" as="geometry" />
        </mxCell>
        <mxCell id="Qsz2sCaqQmOKu8iOu2gR-81" style="edgeStyle=orthogonalEdgeStyle;shape=connector;rounded=0;orthogonalLoop=1;jettySize=auto;html=1;strokeColor=default;align=center;verticalAlign=middle;fontFamily=Helvetica;fontSize=11;fontColor=default;labelBackgroundColor=default;endArrow=none;endFill=0;" edge="1" parent="1" source="Qsz2sCaqQmOKu8iOu2gR-78" target="Qsz2sCaqQmOKu8iOu2gR-75">
          <mxGeometry relative="1" as="geometry" />
        </mxCell>
        <mxCell id="Qsz2sCaqQmOKu8iOu2gR-78" value="transactions" style="rounded=1;whiteSpace=wrap;html=1;" vertex="1" parent="1">
          <mxGeometry x="3327" y="706" width="120" height="60" as="geometry" />
        </mxCell>
        <mxCell id="Qsz2sCaqQmOKu8iOu2gR-85" value="GET, POST, DEL" style="text;html=1;align=center;verticalAlign=middle;resizable=0;points=[];autosize=1;strokeColor=none;fillColor=none;fontFamily=Helvetica;fontSize=11;fontColor=default;labelBackgroundColor=default;" vertex="1" parent="1">
          <mxGeometry x="3454" y="374.5" width="102" height="25" as="geometry" />
        </mxCell>
        <mxCell id="Qsz2sCaqQmOKu8iOu2gR-86" value="GET, POST, DEL" style="text;html=1;align=center;verticalAlign=middle;resizable=0;points=[];autosize=1;strokeColor=none;fillColor=none;fontFamily=Helvetica;fontSize=11;fontColor=default;labelBackgroundColor=default;" vertex="1" parent="1">
          <mxGeometry x="3457" y="492.5" width="102" height="25" as="geometry" />
        </mxCell>
        <mxCell id="Qsz2sCaqQmOKu8iOu2gR-87" value="GET: limit und offset" style="text;html=1;align=center;verticalAlign=middle;resizable=0;points=[];autosize=1;strokeColor=none;fillColor=none;fontFamily=Helvetica;fontSize=11;fontColor=default;labelBackgroundColor=default;" vertex="1" parent="1">
          <mxGeometry x="3451" y="725" width="116" height="25" as="geometry" />
        </mxCell>
        <mxCell id="Qsz2sCaqQmOKu8iOu2gR-89" value="login, signup" style="text;html=1;align=center;verticalAlign=middle;resizable=0;points=[];autosize=1;strokeColor=none;fillColor=none;fontFamily=Helvetica;fontSize=11;fontColor=default;labelBackgroundColor=default;" vertex="1" parent="1">
          <mxGeometry x="3121" y="650" width="80" height="25" as="geometry" />
        </mxCell>
        <mxCell id="Qsz2sCaqQmOKu8iOu2gR-90" value="GET: balance,&amp;nbsp;&lt;div&gt;5 transactions&lt;/div&gt;" style="text;html=1;align=center;verticalAlign=middle;resizable=0;points=[];autosize=1;strokeColor=none;fillColor=none;fontFamily=Helvetica;fontSize=11;fontColor=default;labelBackgroundColor=default;" vertex="1" parent="1">
          <mxGeometry x="3463" y="596" width="90" height="38" as="geometry" />
        </mxCell>
      </root>
    </mxGraphModel>
  </diagram>
</mxfile>
